<?xml version="1.0" encoding="utf-8"?>
<!DOCTYPE svg>
<svg xmlns="http://www.w3.org/2000/svg">
  <symbol id="logo" viewBox="0 0 24 24" fill="currentColor" fill-rule="evenodd">
    <title>Novita AI</title>
    <path clip-rule="evenodd" d="M9.167 4.17v5.665L0 19.003h9.167v-5.666l5.666 5.666H24L9.167 4.17z"></path>
  </symbol>

  <symbol id="circle-dots" xmlns="http://www.w3.org/2000/svg" xmlns:xlink="http://www.w3.org/1999/xlink" xml:space="preserve" viewBox="0 0 512 512">
    <g>
      <path d="M256,0c141.38,0,256,114.62,256,256S397.38,512,256,512S0,397.38,0,256S114.62,0,256,0 M256,51.2
		C142.89,51.2,51.2,142.89,51.2,256S142.89,460.8,256,460.8S460.8,369.11,460.8,256S369.11,51.2,256,51.2 M256,217.6
		c21.21,0,38.4,17.19,38.4,38.4c0,21.21-17.19,38.4-38.4,38.4s-38.4-17.19-38.4-38.4C217.6,234.79,234.79,217.6,256,217.6
		 M140.8,217.6c21.21,0,38.4,17.19,38.4,38.4c0,21.21-17.19,38.4-38.4,38.4s-38.4-17.19-38.4-38.4
		C102.4,234.79,119.59,217.6,140.8,217.6 M371.2,217.6c21.21,0,38.4,17.19,38.4,38.4c0,21.21-17.19,38.4-38.4,38.4
		c-21.21,0-38.4-17.19-38.4-38.4C332.8,234.79,349.99,217.6,371.2,217.6z"></path>
    </g>
  </symbol>

  <symbol xmlns="http://www.w3.org/2000/svg" viewBox="0 0 1920 1920" id="arrow-right">
    <path d="m1304.824 345.002-81.25 81.249 476.466 476.582H0v114.922h1700.04l-476.466 476.465 81.25 81.25L1920 960.293z" fill-rule="evenodd"></path>
  </symbol>

  <symbol id="generate" viewBox="0 0 24 24">
    <path d="M4 3h7l1.2 2h.8v1h-1.366l-1.2-2H4.566l-1.2 2H2v2h11v1H2v11h20v-9h1v10H1V5h1.8zm12.05 2a2.483 2.483 0 0 1 .366-.877l-1.452-1.451.708-.708 1.45 1.452A2.483 2.483 0 0 1 18 3.05V1h1v2.05a2.483 2.483 0 0 1 .877.366l1.451-1.452.708.708-1.452 1.45A2.483 2.483 0 0 1 20.95 5H23v1h-2.05a2.483 2.483 0 0 1-.366.877l1.452 1.451-.708.708-1.45-1.452A2.482 2.482 0 0 1 19 7.95V10h-1V7.95a2.482 2.482 0 0 1-.877-.366l-1.451 1.452-.708-.708 1.452-1.45A2.483 2.483 0 0 1 16.05 6H14V5zm2.45-1A1.5 1.5 0 1 0 20 5.5 1.502 1.502 0 0 0 18.5 4z"/><path fill="none" d="M0 0h24v24H0z"/>
  </symbol>

  <symbol id="library" viewBox="0 0 48 48">
    <defs><style>.a{fill:none;stroke:#000000;stroke-linecap:round;stroke-linejoin:round;}</style></defs><path class="a" d="M43.5,39V9C23.6986,9,24,29.6962,24,39c0-9.3038.3014-30-19.5-30V39"/>
  </symbol>

  <symbol id="search" viewBox="0 0 24 24">
    <path fill="none" stroke="currentColor" d="M18.425 18.425L23.5 23.5m-12.5-2C5.201 21.5.5 16.799.5 11S5.201.5 11 .5S21.5 5.201 21.5 11S16.799 21.5 11 21.5Z"/>
  </symbol>

  <symbol id="fast" viewBox="0 0 1920 1920">
    <path d="M855.281 308.99v522.256L0 309.524v1300.242l855.281-521.83V1610.3l1064.612-650.655L855.281 308.989Zm106.91 190.62 752.755 460.035-752.754 460.034V499.61Zm-855.28.32 748.37 456.507v6.308l-748.37 456.507V499.93Z" fill-rule="evenodd"/>
  </symbol>

  <symbol id="close" viewBox="-0.5 0 25 25">
    <path d="M3 21.32L21 3.32001" stroke="#000000" stroke-width="1.5" stroke-linecap="round" stroke-linejoin="round"/>
    <path d="M3 3.32001L21 21.32" stroke="#000000" stroke-width="1.5" stroke-linecap="round" stroke-linejoin="round"/>
  </symbol>

  <symbol id="google" viewBox="0 0 24 24">
    <title>Google</title>
    <path d="M23 12.245c0-.905-.075-1.565-.236-2.25h-10.54v4.083h6.186c-.124 1.014-.797 2.542-2.294 3.569l-.021.136 3.332 2.53.23.022C21.779 18.417 23 15.593 23 12.245z" fill="#4285F4"></path><path d="M12.225 23c3.03 0 5.574-.978 7.433-2.665l-3.542-2.688c-.948.648-2.22 1.1-3.891 1.1a6.745 6.745 0 01-6.386-4.572l-.132.011-3.465 2.628-.045.124C4.043 20.531 7.835 23 12.225 23z" fill="#34A853"></path><path d="M5.84 14.175A6.65 6.65 0 015.463 12c0-.758.138-1.491.361-2.175l-.006-.147-3.508-2.67-.115.054A10.831 10.831 0 001 12c0 1.772.436 3.447 1.197 4.938l3.642-2.763z" fill="#FBBC05"></path><path d="M12.225 5.253c2.108 0 3.529.892 4.34 1.638l3.167-3.031C17.787 2.088 15.255 1 12.225 1 7.834 1 4.043 3.469 2.197 7.062l3.63 2.763a6.77 6.77 0 016.398-4.572z" fill="#EB4335"></path>
  </symbol>

  <symbol id="logout" viewBox="0 0 24 24">
    <path fill-rule="evenodd" clip-rule="evenodd" d="M2 6.5C2 4.01472 4.01472 2 6.5 2H12C14.2091 2 16 3.79086 16 6V7C16 7.55228 15.5523 8 15 8C14.4477 8 14 7.55228 14 7V6C14 4.89543 13.1046 4 12 4H6.5C5.11929 4 4 5.11929 4 6.5V17.5C4 18.8807 5.11929 20 6.5 20H12C13.1046 20 14 19.1046 14 18V17C14 16.4477 14.4477 16 15 16C15.5523 16 16 16.4477 16 17V18C16 20.2091 14.2091 22 12 22H6.5C4.01472 22 2 19.9853 2 17.5V6.5ZM18.2929 8.29289C18.6834 7.90237 19.3166 7.90237 19.7071 8.29289L22.7071 11.2929C23.0976 11.6834 23.0976 12.3166 22.7071 12.7071L19.7071 15.7071C19.3166 16.0976 18.6834 16.0976 18.2929 15.7071C17.9024 15.3166 17.9024 14.6834 18.2929 14.2929L19.5858 13L11 13C10.4477 13 10 12.5523 10 12C10 11.4477 10.4477 11 11 11L19.5858 11L18.2929 9.70711C17.9024 9.31658 17.9024 8.68342 18.2929 8.29289Z" fill="#0F1729"/>
  </symbol>

  <symbol id="heart" viewBox="0 0 32 32">
    <title>heart</title>
    <path d="M16.042 8.345c0 0-2-4.262-6.5-4.262-4.917 0-7.5 4.167-7.5 8.333 0 6.917 14 15.5 14 15.5s13.916-8.5 13.916-15.5c0-4.25-2.666-8.333-7.416-8.333s-6.5 4.262-6.5 4.262z"></path>
  </symbol>

  <symbol id="profile" viewBox="-32 0 512 512">
    <path d="M224 256c70.7 0 128-57.3 128-128S294.7 0 224 0 96 57.3 96 128s57.3 128 128 128zm89.6 32h-16.7c-22.2 10.2-46.9 16-72.9 16s-50.6-5.8-72.9-16h-16.7C60.2 288 0 348.2 0 422.4V464c0 26.5 21.5 48 48 48h352c26.5 0 48-21.5 48-48v-41.6c0-74.2-60.2-134.4-134.4-134.4z"/>
  </symbol>

  <symbol id="edit" viewBox="0 0 32 32">
    <path d="M2 26h28v2H2zM25.4 9c.8-.8.8-2 0-2.8l-3.6-3.6c-.8-.8-2-.8-2.8 0l-15 15V24h6.4l15-15zm-5-5L24 7.6l-3 3L17.4 7l3-3zM6 22v-3.6l10-10l3.6 3.6l-10 10H6z"/>
  </symbol>

  <symbol id="heart-stroke" viewBox="0 0 24 24">
    <path fill-rule="evenodd" clip-rule="evenodd" d="M5.62436 4.4241C3.96537 5.18243 2.75 6.98614 2.75 9.13701C2.75 11.3344 3.64922 13.0281 4.93829 14.4797C6.00072 15.676 7.28684 16.6675 8.54113 17.6345C8.83904 17.8642 9.13515 18.0925 9.42605 18.3218C9.95208 18.7365 10.4213 19.1004 10.8736 19.3647C11.3261 19.6292 11.6904 19.7499 12 19.7499C12.3096 19.7499 12.6739 19.6292 13.1264 19.3647C13.5787 19.1004 14.0479 18.7365 14.574 18.3218C14.8649 18.0925 15.161 17.8642 15.4589 17.6345C16.7132 16.6675 17.9993 15.676 19.0617 14.4797C20.3508 13.0281 21.25 11.3344 21.25 9.13701C21.25 6.98614 20.0346 5.18243 18.3756 4.4241C16.7639 3.68739 14.5983 3.88249 12.5404 6.02065C12.399 6.16754 12.2039 6.25054 12 6.25054C11.7961 6.25054 11.601 6.16754 11.4596 6.02065C9.40166 3.88249 7.23607 3.68739 5.62436 4.4241ZM12 4.45873C9.68795 2.39015 7.09896 2.10078 5.00076 3.05987C2.78471 4.07283 1.25 6.42494 1.25 9.13701C1.25 11.8025 2.3605 13.836 3.81672 15.4757C4.98287 16.7888 6.41022 17.8879 7.67083 18.8585C7.95659 19.0785 8.23378 19.292 8.49742 19.4998C9.00965 19.9036 9.55954 20.3342 10.1168 20.6598C10.6739 20.9853 11.3096 21.2499 12 21.2499C12.6904 21.2499 13.3261 20.9853 13.8832 20.6598C14.4405 20.3342 14.9903 19.9036 15.5026 19.4998C15.7662 19.292 16.0434 19.0785 16.3292 18.8585C17.5898 17.8879 19.0171 16.7888 20.1833 15.4757C21.6395 13.836 22.75 11.8025 22.75 9.13701C22.75 6.42494 21.2153 4.07283 18.9992 3.05987C16.901 2.10078 14.3121 2.39015 12 4.45873Z"/>
  </symbol>

  <symbol id="zoom" viewBox="0 0 24 24">
    <g id="style=stroke">
      <g id="zoom in-broken">
        <path id="vector (Stroke)" fill-rule="evenodd" clip-rule="evenodd" d="M17.9697 17.9697C18.2626 17.6768 18.7374 17.6768 19.0303 17.9697L21.5303 20.4697C21.8232 20.7626 21.8232 21.2374 21.5303 21.5303C21.2374 21.8232 20.7626 21.8232 20.4697 21.5303L17.9697 19.0303C17.6768 18.7374 17.6768 18.2626 17.9697 17.9697Z"/>
        <path id="vector (Stroke)_2" fill-rule="evenodd" clip-rule="evenodd" d="M11.0529 18.6058C15.2243 18.6058 18.6058 15.2243 18.6058 11.0529C18.6058 6.88155 15.2243 3.5 11.0529 3.5C6.88155 3.5 3.5 6.88155 3.5 11.0529C3.5 15.2243 6.88155 18.6058 11.0529 18.6058ZM11.0529 20.1058C16.0527 20.1058 20.1058 16.0527 20.1058 11.0529C20.1058 6.05312 16.0527 2 11.0529 2C6.05312 2 2 6.05312 2 11.0529C2 16.0527 6.05312 20.1058 11.0529 20.1058Z"/>
        <path id="vector (Stroke)_3" fill-rule="evenodd" clip-rule="evenodd" d="M11 7.46984C11.4142 7.46984 11.75 7.80563 11.75 8.21984L11.75 13.8767C11.75 14.2909 11.4142 14.6267 11 14.6267C10.5858 14.6267 10.25 14.2909 10.25 13.8767L10.25 8.21984C10.25 7.80562 10.5858 7.46984 11 7.46984Z"/>
        <path id="vector (Stroke)_4" fill-rule="evenodd" clip-rule="evenodd" d="M14.64 11C14.64 11.4142 14.3042 11.75 13.89 11.75L8.23314 11.75C7.81893 11.75 7.48314 11.4142 7.48314 11C7.48315 10.5858 7.81893 10.25 8.23315 10.25L13.89 10.25C14.3042 10.25 14.64 10.5858 14.64 11Z"/>
      </g>
    </g>
  </symbol>

  <symbol id="info" viewBox="0 0 56 56">
    <path d="M 24.3320 13.2461 C 24.3320 15.1211 25.8320 16.6211 27.7070 16.6211 C 29.6055 16.6211 31.0820 15.1211 31.0586 13.2461 C 31.0586 11.3477 29.6055 9.8477 27.7070 9.8477 C 25.8320 9.8477 24.3320 11.3477 24.3320 13.2461 Z M 18.5195 44.2305 C 18.5195 45.3789 19.3399 46.1523 20.5820 46.1523 L 35.4179 46.1523 C 36.6601 46.1523 37.4805 45.3789 37.4805 44.2305 C 37.4805 43.1055 36.6601 42.3320 35.4179 42.3320 L 30.7070 42.3320 L 30.7070 24.4492 C 30.7070 23.1836 29.8867 22.3399 28.6680 22.3399 L 21.2383 22.3399 C 20.0195 22.3399 19.1992 23.0899 19.1992 24.2148 C 19.1992 25.3867 20.0195 26.1602 21.2383 26.1602 L 26.3711 26.1602 L 26.3711 42.3320 L 20.5820 42.3320 C 19.3399 42.3320 18.5195 43.1055 18.5195 44.2305 Z"/>
  </symbol>

  <symbol id="cross" viewBox="0 0 24 24">
    <path d="M6 6L18 18" stroke="#000000" stroke-linecap="round"/>
    <path d="M18 6L6.00001 18" stroke="#000000" stroke-linecap="round"/>
  </symbol>
</svg>
