<?xml version="1.0" encoding="utf-8"?>
<!DOCTYPE svg>
<svg xmlns="http://www.w3.org/2000/svg">
  <symbol id="logo" viewBox="0 0 24 24" fill="currentColor" fill-rule="evenodd">
    <title>Novita AI</title>
    <path clip-rule="evenodd" d="M9.167 4.17v5.665L0 19.003h9.167v-5.666l5.666 5.666H24L9.167 4.17z"></path>
  </symbol>

  <symbol id="circle-dots" xmlns="http://www.w3.org/2000/svg" xmlns:xlink="http://www.w3.org/1999/xlink" xml:space="preserve" viewBox="0 0 512 512">
    <g>
      <path d="M256,0c141.38,0,256,114.62,256,256S397.38,512,256,512S0,397.38,0,256S114.62,0,256,0 M256,51.2
		C142.89,51.2,51.2,142.89,51.2,256S142.89,460.8,256,460.8S460.8,369.11,460.8,256S369.11,51.2,256,51.2 M256,217.6
		c21.21,0,38.4,17.19,38.4,38.4c0,21.21-17.19,38.4-38.4,38.4s-38.4-17.19-38.4-38.4C217.6,234.79,234.79,217.6,256,217.6
		 M140.8,217.6c21.21,0,38.4,17.19,38.4,38.4c0,21.21-17.19,38.4-38.4,38.4s-38.4-17.19-38.4-38.4
		C102.4,234.79,119.59,217.6,140.8,217.6 M371.2,217.6c21.21,0,38.4,17.19,38.4,38.4c0,21.21-17.19,38.4-38.4,38.4
		c-21.21,0-38.4-17.19-38.4-38.4C332.8,234.79,349.99,217.6,371.2,217.6z"></path>
    </g>
  </symbol>

  <symbol xmlns="http://www.w3.org/2000/svg" viewBox="0 0 1920 1920" id="arrow-right">
    <path d="m1304.824 345.002-81.25 81.249 476.466 476.582H0v114.922h1700.04l-476.466 476.465 81.25 81.25L1920 960.293z" fill-rule="evenodd"></path>
  </symbol>

  <symbol id="generate" viewBox="0 0 24 24">
    <path d="M4 3h7l1.2 2h.8v1h-1.366l-1.2-2H4.566l-1.2 2H2v2h11v1H2v11h20v-9h1v10H1V5h1.8zm12.05 2a2.483 2.483 0 0 1 .366-.877l-1.452-1.451.708-.708 1.45 1.452A2.483 2.483 0 0 1 18 3.05V1h1v2.05a2.483 2.483 0 0 1 .877.366l1.451-1.452.708.708-1.452 1.45A2.483 2.483 0 0 1 20.95 5H23v1h-2.05a2.483 2.483 0 0 1-.366.877l1.452 1.451-.708.708-1.45-1.452A2.482 2.482 0 0 1 19 7.95V10h-1V7.95a2.482 2.482 0 0 1-.877-.366l-1.451 1.452-.708-.708 1.452-1.45A2.483 2.483 0 0 1 16.05 6H14V5zm2.45-1A1.5 1.5 0 1 0 20 5.5 1.502 1.502 0 0 0 18.5 4z"/><path fill="none" d="M0 0h24v24H0z"/>
  </symbol>

  <symbol id="library" viewBox="0 0 48 48">
    <defs><style>.a{fill:none;stroke:#000000;stroke-linecap:round;stroke-linejoin:round;}</style></defs><path class="a" d="M43.5,39V9C23.6986,9,24,29.6962,24,39c0-9.3038.3014-30-19.5-30V39"/>
  </symbol>

  <symbol id="search" viewBox="0 0 24 24">
    <path fill="none" stroke="currentColor" d="M18.425 18.425L23.5 23.5m-12.5-2C5.201 21.5.5 16.799.5 11S5.201.5 11 .5S21.5 5.201 21.5 11S16.799 21.5 11 21.5Z"/>
  </symbol>

  <symbol id="fast" viewBox="0 0 1920 1920">
    <path d="M855.281 308.99v522.256L0 309.524v1300.242l855.281-521.83V1610.3l1064.612-650.655L855.281 308.989Zm106.91 190.62 752.755 460.035-752.754 460.034V499.61Zm-855.28.32 748.37 456.507v6.308l-748.37 456.507V499.93Z" fill-rule="evenodd"/>
  </symbol>

  <symbol id="close" viewBox="-0.5 0 25 25">
    <path d="M3 21.32L21 3.32001" stroke="#000000" stroke-width="1.5" stroke-linecap="round" stroke-linejoin="round"/>
    <path d="M3 3.32001L21 21.32" stroke="#000000" stroke-width="1.5" stroke-linecap="round" stroke-linejoin="round"/>
  </symbol>

  <symbol id="google" viewBox="0 0 24 24">
    <title>Google</title>
    <path d="M23 12.245c0-.905-.075-1.565-.236-2.25h-10.54v4.083h6.186c-.124 1.014-.797 2.542-2.294 3.569l-.021.136 3.332 2.53.23.022C21.779 18.417 23 15.593 23 12.245z" fill="#4285F4"></path><path d="M12.225 23c3.03 0 5.574-.978 7.433-2.665l-3.542-2.688c-.948.648-2.22 1.1-3.891 1.1a6.745 6.745 0 01-6.386-4.572l-.132.011-3.465 2.628-.045.124C4.043 20.531 7.835 23 12.225 23z" fill="#34A853"></path><path d="M5.84 14.175A6.65 6.65 0 015.463 12c0-.758.138-1.491.361-2.175l-.006-.147-3.508-2.67-.115.054A10.831 10.831 0 001 12c0 1.772.436 3.447 1.197 4.938l3.642-2.763z" fill="#FBBC05"></path><path d="M12.225 5.253c2.108 0 3.529.892 4.34 1.638l3.167-3.031C17.787 2.088 15.255 1 12.225 1 7.834 1 4.043 3.469 2.197 7.062l3.63 2.763a6.77 6.77 0 016.398-4.572z" fill="#EB4335"></path>
  </symbol>
</svg>
