<?xml version="1.0" encoding="utf-8"?>
<!DOCTYPE svg>
<svg xmlns="http://www.w3.org/2000/svg">
    <symbol id="logo" viewBox="0 0 24 24" fill="currentColor" fill-rule="evenodd">
        <title>Novita AI</title>
        <path clip-rule="evenodd" d="M9.167 4.17v5.665L0 19.003h9.167v-5.666l5.666 5.666H24L9.167 4.17z"></path>
    </symbol>

    <symbol id="circle-dots" xmlns="http://www.w3.org/2000/svg" xmlns:xlink="http://www.w3.org/1999/xlink" xml:space="preserve" viewBox="0 0 512 512">
    <g>
      <path d="M256,0c141.38,0,256,114.62,256,256S397.38,512,256,512S0,397.38,0,256S114.62,0,256,0 M256,51.2
		C142.89,51.2,51.2,142.89,51.2,256S142.89,460.8,256,460.8S460.8,369.11,460.8,256S369.11,51.2,256,51.2 M256,217.6
		c21.21,0,38.4,17.19,38.4,38.4c0,21.21-17.19,38.4-38.4,38.4s-38.4-17.19-38.4-38.4C217.6,234.79,234.79,217.6,256,217.6
		 M140.8,217.6c21.21,0,38.4,17.19,38.4,38.4c0,21.21-17.19,38.4-38.4,38.4s-38.4-17.19-38.4-38.4
		C102.4,234.79,119.59,217.6,140.8,217.6 M371.2,217.6c21.21,0,38.4,17.19,38.4,38.4c0,21.21-17.19,38.4-38.4,38.4
		c-21.21,0-38.4-17.19-38.4-38.4C332.8,234.79,349.99,217.6,371.2,217.6z"></path>
    </g>
  </symbol>
</svg>
